# AST/ASF file generated using VICON BodyLanguage
# -----------------------------------------------
:version 1.10
:name VICON
:units
  mass 1.0
  length 0.1
  angle deg
:documentation
   .ast/.asf automatically generated from VICON data using
   VICON BodyBuilder and BodyLanguage model FULLBODY5.MOD
:root
   order TX TY TZ RZ RY RX
   axis XYZ
   position 0 0 0  
   orientation 0 -0 0 
:bonedata
  begin
     id 1 
     name lhipjoint
     direction 0.961525 -0.229516 0.150972 
     length 0.502153 
     axis 0 -0 0  XYZ
  end
  begin
     id 2 
     name lfemur
     direction 0.173648 -0.984808 0  
     length 1.83052  
     axis 0 -0 10  XYZ
    dof rx ry rz
    limits (-180.0 180.0)
           (-180.0 180.0)
           (-180.0 180.0)
  end
  begin
     id 3 
     name ltibia
     direction 0.173629 -0.984811 0   
     length 1.50296   
     axis 0 -0 10   XYZ
    dof rx ry rz
    limits (-180.0 180.0)
           (-180.0 180.0)
           (-180.0 180.0)
  end
  begin
     id 4 
     name lfoot
     direction 7.59329e-012 -0.227408 0.9738   
     length 0.574743   
     axis -90 -1.73656e-015 10   XYZ
    dof rx ry rz
    limits (-180.0 180.0)
           (-180.0 180.0)
           (-180.0 180.0)
  end
  begin
     id 5 
     name ltoes
     direction 7.79885e-012 -4.41741e-011 1   
     length 0.28489   
     axis -90 -1.73656e-015 10   XYZ
    dof rx ry rz
    limits (-180.0 180.0)
           (-180.0 180.0)
           (-180.0 180.0)
  end
  begin
     id 6 
     name rhipjoint
     direction -0.970498 -0.201437 0.132502   
     length 0.572149  
     axis 0 -0 0  XYZ 
  end
  begin
     id 7 
     name rfemur
     direction -0.173648 -0.984808 0   
     length 1.71866   
     axis 0 -0 -10   XYZ
    dof rx ry rz
    limits (-180.0 180.0)
           (-180.0 180.0)
           (-180.0 180.0)
  end
  begin
     id 8 
     name rtibia
     direction -0.173624 -0.984812 0   
     length 1.42623   
     axis 0 -0 -10   XYZ
    dof rx ry rz
    limits (-180.0 180.0)
           (-180.0 180.0)
           (-180.0 180.0)
 end
 begin
     id 9 
     name rfoot
     direction -7.12931e-012 -0.404275 0.914637   
     length 0.524692  
     axis -90 1.73656e-015 -10   XYZ
    dof rx ry rz
    limits (-180.0 180.0)
           (-180.0 180.0)
           (-180.0 180.0)
  end
  begin
     id 10 
     name rtoes
     direction -7.79289e-012 -4.41454e-011 1   
     length 0.254983   
     axis -90 1.73656e-015 -10   XYZ
    dof rx ry rz
    limits (-180.0 180.0)
           (-180.0 180.0)
           (-180.0 180.0)
  end
  begin
     id 11 
     name lowerback
     direction -0.0214086 0.993738 0.109665   
     length 0.417614   
     axis 0 -0 0   XYZ
    dof rx ry rz
    limits (-180.0 180.0)
           (-180.0 180.0)
           (-180.0 180.0)
  end
  begin
     id 12 
     name upperback
     direction 8.15962e-005 0.99996 0.00893412   
     length 0.419234   
     axis 0 -0 0   XYZ
    dof rx ry rz
    limits (-180.0 180.0)
           (-180.0 180.0)
           (-180.0 180.0)
  end
  begin
     id 13 
     name thorax
     direction 0.00826031 0.999067 -0.0423848   
     length 0.424697   
     axis 0 -0 0   XYZ
    dof rx ry rz
    limits (-180.0 180.0)
           (-180.0 180.0)
           (-180.0 180.0)
  end
  begin
     id 14 
     name lowerneck
     direction -0.0196262 0.994272 -0.105058   
     length 0.355877   
     axis 0 -0 0   XYZ
    dof rx ry rz
    limits (-180.0 180.0)
           (-180.0 180.0)
           (-180.0 180.0)
  end
  begin
     id 15 
     name upperneck
     direction 0.000117372 0.999091 0.0426261   
     length 0.351054   
     axis 0 -0 0   XYZ
    dof rx ry rz
    limits (-180.0 180.0)
           (-180.0 180.0)
           (-180.0 180.0)
  end
  begin
     id 16
     name head
     direction 0.00157618 0.999651 0.0263619  
     length 0.374844  
     axis 0 -0 0   XYZ
    dof rx ry rz
    limits (-180.0 180.0)
           (-180.0 180.0)
           (-180.0 180.0)
  end
  begin
     id 17 
     name lshoulderjoint
     direction 0.981627 -0.190809 0  
     length 0.701763  
     axis 0 -0 -11   XYZ
    dof rx ry rz
    limits (-180.0 180.0)
           (-180.0 180.0)
           (-180.0 180.0)
  end
  begin
     id 18 
     name lhumerus
     direction 0.48481 -0.87462 -1.80676e-026   
     length 0.994704   
     axis -180 5.14477e-009 -151   XYZ
    dof rx ry rz
    limits (-180.0 180.0)
           (-180.0 180.0)
           (-180.0 180.0)
  end
  begin
     id 19
     name lradius
     direction 0.48481 -0.87462 -3.2569e-026   
     length 0.617638   
     axis -180 5.14477e-009 -151   XYZ
    dof rx ry rz
    limits (-180.0 180.0)
           (-180.0 180.0)
           (-180.0 180.0)
  end
  begin
     id 20
     name lwrist
     direction 0.48481 -0.87462 -6.73202e-026   
     length 0.308819   
     axis -180 5.14477e-009 -151   XYZ
    dof rx ry rz
    limits (-180.0 180.0)
           (-180.0 180.0)
           (-180.0 180.0)
  end
  begin
     id 21 
     name lhand
     direction 0.478366 -0.863761 -0.158376   
     length 0.291656   
     axis -180 5.14477e-009 -151   XYZ
    dof rx ry rz
    limits (-180.0 180.0)
           (-180.0 180.0)
           (-180.0 180.0)
  end
  begin
     id 22 
     name rshoulderjoint
     direction -0.981627 -0.190809 0   
     length 0.66654  
     axis 0 -0 11   XYZ 
    dof rx ry rz
    limits (-180.0 180.0)
           (-180.0 180.0)
           (-180.0 180.0)
  end
  begin
     id 23 
     name rhumerus
     direction -0.48481 -0.87462 1.77576e-026  
     length 1.15089   
     axis 180 5.14477e-009 151   XYZ
    dof rx ry rz
    limits (-180.0 180.0)
           (-180.0 180.0)
           (-180.0 180.0)
  end
  begin
     id 24 
     name rradius
     direction -0.48481 -0.87462 3.79421e-026   
     length 0.613887   
     axis 180 5.14477e-009 151   XYZ
    dof rx ry rz
    limits (-180.0 180.0)
           (-180.0 180.0)
           (-180.0 180.0)
  end
  begin
     id 25 
     name rwrist
     direction -0.48481 -0.87462 5.43623e-026   
     length 0.306944   
     axis 180 5.14477e-009 151   XYZ
    dof rx ry rz
    limits (-180.0 180.0)
           (-180.0 180.0)
           (-180.0 180.0)
  end
  begin
     id 26
     name rhand
     direction -0.479273 -0.864638 -0.150661   
     length 0.306429   
     axis 180 5.14477e-009 151   XYZ
    dof rx ry rz
    limits (-180.0 180.0)
           (-180.0 180.0)
           (-180.0 180.0)
  end
:hierarchy
  begin
    root lhipjoint rhipjoint lowerback 
    lhipjoint lfemur
    lfemur ltibia
    ltibia lfoot
    lfoot ltoes
    rhipjoint rfemur
    rfemur rtibia
    rtibia rfoot
    rfoot rtoes
    lowerback upperback
    upperback thorax
    thorax lowerneck lshoulderjoint rshoulderjoint
    lowerneck upperneck
    upperneck head
    lshoulderjoint lhumerus
    lhumerus lradius
    lradius lwrist
    lwrist lhand
    rshoulderjoint rhumerus
    rhumerus rradius
    rradius rwrist
    rwrist rhand
  end

:FULLY-SPECIFIED
:DEGREES
1615
root 1.03236 3.45351 -0.358783 -63.6058 76.6873 65.1156
lowerback -11.1396 3.06519 1.24865
upperback -1.57764 4.01631 -0.800607
thorax 4.72893 2.03486 -0.928059
lowerneck 12.0071 -0.758869 -2.28838
upperneck -6.26895 -1.14305 2.5387
head -4.22017 -0.634837 1.35901
rshoulderjoint 1.84188 -4.71725 -32.3571
rhumerus 12.4098 -14.9521 -57.6315
rradius 49.003 -1.24042e-013 8.50798e-014
rwrist -1.72735e-013 6.12108 3.13482e-013
rhand 5.19151 -4.99802 35.1123
lshoulderjoint 2.88355 11.6743 24.9784
lhumerus -4.61 24.6651 50.7435
lradius 20.7731 2.8625e-013 1.65985e-014
lwrist -3.29479e-013 -4.65457 -1.97847e-013
lhand 25.0474 3.32439 -8.60024
rfemur 3.73415 2.93652 15.1853
rtibia 4.98795 3.97569e-015 1.74931e-014
rfoot -15.0703 14.9504 -10.1343
rtoes -8.26944e-014 6.91771e-014 -3.02153e-014
lfemur -34.666 -8.31243 -7.69569
ltibia 6.36111e-015 -3.18055e-014 7.95139e-016
lfoot -9.68485 0.0621299 15.639
ltoes 5.725e-014 -1.94126e-015 1.03368e-014
1616
root 1.08448 3.44179 -0.360786 -63.1894 76.669 64.6863
lowerback -11.1933 3.1199 1.28322
upperback -1.57858 4.08481 -0.808284
thorax 4.7627 2.06941 -0.941779
lowerneck 12.0069 -0.76879 -2.2507
upperneck -6.28751 -1.15295 2.50804
head -4.22661 -0.639125 1.34266
rshoulderjoint 1.86107 -4.76756 -32.353
rhumerus 12.6582 -14.8758 -57.5776
rradius 49.121 2.44903e-013 1.35174e-014
rwrist -1.08003e-012 5.51903 -2.52434e-013
rhand 4.7906 -4.51261 35.002
lshoulderjoint 2.87879 11.7125 24.913
lhumerus -5.05047 24.6491 50.4438
lradius 20.6373 -4.26194e-013 4.77083e-015
lwrist -6.6875e-013 -4.8796 2.53774e-013
lhand 24.7804 4.4021 -8.64978
rfemur 3.29228 2.98639 15.0855
rtibia 7.91792 5.56597e-015 1.59028e-014
rfoot -16.7092 14.3434 -10.467
rtoes -5.725e-014 7.0171e-014 4.29375e-014
lfemur -34.9708 -8.15801 -7.87896
ltibia 1.01778e-013 -3.18055e-015 1.51076e-014
lfoot -11.0091 0.578741 15.0353
ltoes -4.10292e-013 3.11595e-014 8.11041e-014
1617
root 1.13787 3.43059 -0.362856 -62.9062 76.695 64.4462
lowerback -11.276 3.1298 1.2261
upperback -1.55804 4.10505 -0.831436
thorax 4.82847 2.07859 -0.92551
lowerneck 11.8841 -0.777199 -2.14242
upperneck -6.23859 -1.14975 2.46051
head -4.18441 -0.637487 1.30405
rshoulderjoint 1.87095 -4.81341 -32.2705
rhumerus 12.8784 -14.8332 -57.5271
rradius 49.1788 1.20861e-013 5.64548e-014
rwrist -1.01208e-012 4.99505 -2.87341e-014
rhand 4.40479 -4.07254 34.9008
lshoulderjoint 2.89657 11.8255 24.869
lhumerus -5.42132 24.6051 50.1887
lradius 20.5085 -9.85972e-014 -7.73769e-014
lwrist -5.22765e-013 -4.94952 -1.2291e-013
lhand 24.4601 4.82945 -8.90788
rfemur 3.22973 2.97878 14.934
rtibia 10.0852 9.54166e-015 7.15625e-015
rfoot -17.8231 13.9405 -10.7094
rtoes 2.38542e-014 1.79105e-013 -3.65764e-014
lfemur -35.005 -8.10789 -8.16375
ltibia 3.49861e-014 -1.27222e-014 -9.54166e-015
lfoot -11.7117 1.17216 14.8566
ltoes -4.77083e-014 3.77691e-014 1.36764e-013
1618
root 1.19222 3.42011 -0.364919 -62.7599 76.7481 64.4419
lowerback -11.3796 3.14363 1.08783
upperback -1.55294 4.14314 -0.89358
thorax 4.88733 2.09556 -0.901017
lowerneck 11.8138 -0.821263 -2.02468
upperneck -6.21857 -1.19392 2.40821
head -4.16205 -0.659405 1.26673
rshoulderjoint 1.9072 -4.92478 -32.2006
rhumerus 13.005 -14.85 -57.5029
rradius 49.194 -1.59028e-013 1.07344e-013
rwrist -8.29545e-014 4.5382 3.95629e-013
rhand 4.04735 -3.67741 34.8213
lshoulderjoint 2.89314 11.8237 24.8552
lhumerus -5.8226 24.5865 49.9622
lradius 20.3744 3.88028e-013 1.44119e-014
lwrist -2.8899e-013 -5.1123 -2.77813e-013
lhand 24.1075 5.05839 -9.28689
rfemur 3.36313 2.92839 14.688
rtibia 11.842 7.95139e-015 1.35174e-014
rfoot -18.6042 13.7138 -10.8688
rtoes -1.43125e-014 9.91935e-014 3.02153e-014
lfemur -34.8123 -8.14485 -8.57751
ltibia 7.63333e-014 -6.36111e-015 7.95139e-016
lfoot -11.4649 1.73611 15.0678
ltoes -2.95792e-013 7.42461e-014 7.39479e-014
1619
root 1.24832 3.41056 -0.366825 -62.7598 76.828 64.5859
lowerback -11.5562 3.12126 0.913106
upperback -1.53237 4.13719 -0.946172
thorax 4.99835 2.08989 -0.84858
lowerneck 11.6917 -0.851223 -1.90008
upperneck -6.16137 -1.21677 2.36865
head -4.11658 -0.671425 1.22978
rshoulderjoint 1.90765 -4.94808 -32.1144
rhumerus 13.0337 -14.9314 -57.4797
rradius 49.1763 -6.67916e-014 7.4743e-014
rwrist -3.50789e-013 4.16779 2.07284e-013
rhand 3.77324 -3.35184 34.7891
lshoulderjoint 2.91527 11.9127 24.8584
lhumerus -6.17697 24.5218 49.815
lradius 20.2061 2.00375e-013 7.35503e-014
lwrist -5.84626e-013 -5.38965 -5.59069e-014
lhand 23.7723 5.32106 -9.73123
rfemur 3.64128 2.83643 14.4274
rtibia 13.3419 -6.36111e-015 7.15625e-015
rfoot -19.0802 13.275 -10.8953
rtoes 0 1.05157e-013 -2.70347e-014
lfemur -34.8318 -8.24091 -9.01444
ltibia 0.981078 1.59028e-015 -1.59028e-015
lfoot -10.6297 2.58185 15.3444
ltoes -2.57625e-013 9.06458e-014 4.92986e-014
1620
root 1.306 3.402 -0.368375 -63.0106 76.9143 64.9955
lowerback -11.815 3.09926 0.705599
upperback -1.53438 4.13784 -1.00633
thorax 5.1297 2.08696 -0.780878
lowerneck 11.5842 -0.901195 -1.8165
upperneck -6.05163 -1.26758 2.39603
head -4.05441 -0.699506 1.22445
rshoulderjoint 1.91942 -5.01893 -31.9603
rhumerus 12.9168 -15.0016 -57.3448
rradius 49.1406 1.90833e-013 1.59028e-014
rwrist -7.58705e-013 3.87351 -2.16773e-013
rhand 3.56821 -3.10546 34.8267
lshoulderjoint 2.91691 11.9009 24.8789
lhumerus -6.56832 24.4825 49.6185
lradius 20.0436 -3.53042e-013 -1.1373e-013
lwrist -1.20601e-013 -5.40149 2.23632e-014
lhand 23.5167 5.33322 -10.1305
rfemur 3.97704 2.6932 14.1773
rtibia 14.6471 -1.59028e-015 0
rfoot -19.2802 13.0525 -10.9559
rtoes 1.59028e-014 2.78299e-014 -7.95139e-014
lfemur -37.3692 -8.39435 -9.45945
ltibia 7.97858 -1.59028e-014 -1.90833e-014
lfoot -11.7593 4.2689 15.2247
ltoes 2.35361e-013 1.54058e-014 -3.97569e-016
1621
root 1.36596 3.39451 -0.369685 -63.2939 76.9942 65.4569
lowerback -12.1877 3.08268 0.463119
upperback -1.54825 4.1524 -1.06508
thorax 5.30934 2.08996 -0.683985
lowerneck 11.5053 -0.964053 -1.73364
upperneck -5.89697 -1.33669 2.42392
head -3.98167 -0.736557 1.22037
rshoulderjoint 1.93262 -5.08244 -31.8517
rhumerus 12.6385 -15.1117 -57.2374
rradius 49.0705 5.725e-014 7.95139e-015
rwrist -5.03601e-013 3.74179 -4.78102e-014
rhand 3.47515 -2.9805 34.9133
lshoulderjoint 2.90579 11.8287 24.9079
lhumerus -6.99985 24.4709 49.4152
lradius 19.8848 -1.46306e-013 -3.91233e-014
lwrist -2.74046e-013 -5.61211 -1.59794e-015
lhand 23.2704 5.53775 -10.5198
rfemur 4.37073 2.5463 13.9135
rtibia 15.8677 4.77083e-015 2.38542e-015
rfoot -19.3834 12.8773 -10.9468
rtoes 3.18055e-015 8.84592e-014 1.74931e-014
lfemur -38.3401 -8.59759 -9.95493
ltibia 11.7248 -3.18055e-015 4.77083e-015
lfoot -10.8365 5.11729 15.191
ltoes -1.11319e-013 2.77802e-014 1.00187e-013
1622
root 1.42733 3.38808 -0.370992 -63.7455 77.0256 66.0905
lowerback -12.6538 3.04852 0.169438
upperback -1.61051 4.15301 -1.09884
thorax 5.48376 2.08494 -0.531145
lowerneck 11.4769 -1.03189 -1.67623
upperneck -5.70663 -1.4175 2.45074
head -3.90615 -0.778693 1.22144
rshoulderjoint 1.95656 -5.18398 -31.7109
rhumerus 12.2155 -15.0923 -56.9656
rradius 48.9709 2.22639e-014 -1.74931e-014
rwrist 3.18758e-014 3.80523 -7.01268e-014
rhand 3.37349 -3.06236 35.0596
lshoulderjoint 2.90967 11.815 24.9411
lhumerus -7.44016 24.4018 49.2607
lradius 19.7336 5.40694e-014 -6.68957e-014
lwrist 1.15095e-013 -5.82839 -1.50263e-013
lhand 22.9988 5.73794 -10.9378
rfemur 4.68341 2.39244 13.6573
rtibia 17.072 7.15625e-015 -7.95139e-016
rfoot -19.3222 12.7951 -10.9691
rtoes 8.5875e-014 8.34896e-015 -1.11319e-014
lfemur -39.1057 -8.80005 -10.5047
ltibia 14.7894 1.59028e-015 0
lfoot -9.02427 5.18412 15.3907
ltoes 6.04305e-014 -1.25483e-015 6.08281e-014
1623
root 1.48968 3.38288 -0.372007 -64.3146 76.9526 66.8488
lowerback -13.2594 3.00015 -0.182652
upperback -1.72889 4.14841 -1.12298
thorax 5.67071 2.07639 -0.330616
lowerneck 11.55 -1.08252 -1.60704
upperneck -5.54393 -1.47317 2.48725
head -3.86155 -0.809391 1.22373
rshoulderjoint 1.95256 -5.21258 -31.5685
rhumerus 11.6475 -15.1426 -56.7113
rradius 48.8264 -1.46306e-013 2.70347e-014
rwrist 6.69482e-013 3.91857 2.00844e-013
rhand 3.45301 -3.1499 35.2073
lshoulderjoint 2.89516 11.7582 24.9376
lhumerus -7.93876 24.4013 49.0209
lradius 19.5985 2.70347e-013 1.22277e-013
lwrist 1.13535e-013 -6.01661 5.27698e-014
lhand 22.6812 5.91796 -11.3006
rfemur 4.84629 2.26606 13.4026
rtibia 18.3411 -2.38542e-015 -1.59028e-015
rfoot -19.0862 12.711 -10.9283
rtoes 1.27222e-014 2.34566e-014 1.90833e-014
lfemur -39.8773 -8.97105 -11.0241
ltibia 17.4378 6.36111e-015 1.27222e-014
lfoot -6.74767 4.00996 15.6856
ltoes -1.94014e-013 1.78161e-014 4.53229e-014
1624
root 1.55283 3.37936 -0.373089 -64.8157 76.8281 67.6789
lowerback -13.9349 2.89914 -0.725032
upperback -1.86932 4.10946 -1.1456
thorax 5.8585 2.04704 -0.0253886
lowerneck 11.6098 -1.11483 -1.57319
upperneck -5.3729 -1.51093 2.51012
head -3.81176 -0.829582 1.22625
rshoulderjoint 1.95287 -5.24159 -31.4674
rhumerus 11.0232 -15.1106 -56.435
rradius 48.6188 1.20861e-013 -1.69365e-013
rwrist 7.74926e-013 4.17006 -4.62405e-013
rhand 3.57909 -3.34847 35.3299
lshoulderjoint 2.90888 11.8347 24.9155
lhumerus -8.4274 24.3456 48.8444
lradius 19.4735 -2.54444e-013 1.36416e-014
lwrist 5.34941e-013 -6.06444 2.51079e-013
lhand 22.3006 5.95911 -11.6418
rfemur 4.84939 2.14657 12.9883
rtibia 19.7477 -7.15625e-015 -4.77083e-015
rfoot -18.6188 12.4213 -10.7982
rtoes -2.8625e-014 -6.54002e-014 -3.97569e-014
lfemur -40.3882 -9.10253 -11.6128
ltibia 19.5612 -1.59028e-015 -6.36111e-015
lfoot -4.2796 3.01648 15.3654
ltoes 1.95604e-013 -3.8763e-014 -4.45278e-014
